<svg width="377" height="125" viewBox="0 0 377 125" fill="none" xmlns="http://www.w3.org/2000/svg">
<g filter="url(#filter0_d_107_1407)">
<path d="M246.327 80.566C243.894 79.8461 233.92 88.1512 232.854 98.2197C231.622 109.864 242.693 120.172 245.21 119.494C246.995 119.003 243.674 113.161 243.914 101.089C244.165 87.9217 248.384 81.1712 246.327 80.566Z" fill="black"/>
<path d="M0.122052 5.93448C-1.91451 17.1089 22.1065 18.027 29.5635 18.9452C40.4774 20.2911 45.4695 20.7293 52.0179 20.3955C59.3286 20.0198 62.9944 19.832 63.3078 18.4757C64.373 13.9475 53.4069 11.1304 50.0544 10.0975C42.1066 7.64559 34.1797 5.05806 26.1901 2.7731C19.0047 0.728118 1.85574 -3.60183 0.122052 5.93448Z" fill="black"/>
<path d="M150.985 22.3674C148.948 33.5418 172.969 34.4599 180.426 35.3781C191.34 36.724 196.332 37.1622 202.88 36.8283C210.191 36.4527 213.857 36.2649 214.17 34.9086C215.236 30.3804 204.269 27.5633 200.917 26.5304C192.969 24.0785 185.042 21.491 177.053 19.206C169.878 17.1506 152.729 12.8206 150.995 22.3569L150.985 22.3674Z" fill="black"/>
<path d="M95.2348 84.7918C90.1069 88.141 99.3706 100.171 102.002 104.146C105.856 109.978 107.684 112.566 110.431 115.613C113.501 119.024 115.047 120.725 115.694 120.36C117.867 119.118 114.567 112.702 113.616 110.667C111.381 105.857 109.198 100.995 106.88 96.227C104.801 91.9388 99.6004 81.933 95.2244 84.7918H95.2348Z" fill="black"/>
<path d="M96.2375 85.1776C100.634 89.4449 110.358 77.7906 113.668 74.3579C118.525 69.3289 120.655 66.9814 123.037 63.6322C125.689 59.8865 127.026 58.0189 126.525 57.4659C124.843 55.6192 119.287 60.2413 117.512 61.6081C113.303 64.8425 109.031 68.0247 104.875 71.3218C101.146 74.2849 92.4986 81.5362 96.2479 85.1776H96.2375Z" fill="black"/>
<path d="M94.1383 40.2298C86.2949 41.3149 87.9973 70.4872 88.0913 79.7418C88.227 93.2951 88.415 99.43 89.2819 107.193C90.2532 115.863 90.7336 120.203 91.684 120.162C94.8903 120.016 95.7467 105.941 96.1227 101.579C97.0313 91.2501 98.0234 80.9 98.8172 70.5707C99.5274 61.2952 100.822 39.3116 94.1383 40.2298Z" fill="black"/>
<path d="M264.092 84.6665C258.964 88.0157 268.228 100.046 270.86 104.021C274.714 109.853 276.541 112.441 279.288 115.487C282.359 118.899 283.904 120.6 284.552 120.235C286.724 118.993 283.424 112.576 282.473 110.542C280.238 105.732 278.056 100.87 275.737 96.1017C273.659 91.8135 268.458 81.8077 264.082 84.6665H264.092Z" fill="black"/>
<path d="M265.084 85.0526C269.481 89.3199 279.204 77.6656 282.515 74.2329C287.372 69.2039 289.502 66.8564 291.883 63.5072C294.536 59.7615 295.873 57.8939 295.372 57.3409C293.69 55.4942 288.134 60.1163 286.359 61.4831C282.15 64.7175 277.878 67.8997 273.721 71.1968C269.993 74.1599 261.345 81.4112 265.095 85.0526H265.084Z" fill="black"/>
<path d="M300.813 64.4356C301.502 69.5585 314.056 66.8771 318.045 66.3137C323.894 65.4998 326.536 65.0512 329.868 64.06C333.586 62.954 335.445 62.4011 335.403 61.775C335.246 59.6675 329.147 59.8553 327.257 59.8344C322.776 59.7927 318.275 59.6779 313.795 59.7092C309.774 59.7405 300.238 60.0535 300.834 64.4252L300.813 64.4356Z" fill="black"/>
<path d="M293.502 116.698C294.192 121.82 306.745 119.139 310.735 118.576C316.583 117.762 319.226 117.313 322.557 116.322C326.275 115.216 328.134 114.663 328.092 114.037C327.936 111.929 321.837 112.117 319.946 112.096C315.466 112.055 310.964 111.94 306.484 111.971C302.463 112.002 292.928 112.315 293.523 116.687L293.502 116.698Z" fill="black"/>
<path d="M299.842 87.4627C300.333 91.1144 309.293 89.2051 312.134 88.8086C316.312 88.2243 318.192 87.9009 320.573 87.2018C323.226 86.4193 324.552 86.0228 324.521 85.5742C324.406 84.0718 320.051 84.197 318.703 84.1865C315.508 84.1552 312.291 84.0822 309.095 84.1031C306.223 84.1239 299.424 84.3535 299.842 87.4731V87.4627Z" fill="black"/>
<path d="M262.996 40.0941C255.152 41.1792 256.854 70.3515 256.948 79.6061C257.084 93.1594 257.272 99.2943 258.139 107.057C259.11 115.727 259.591 120.068 260.541 120.026C263.747 119.88 264.604 105.805 264.98 101.444C265.888 91.1144 266.881 80.7642 267.674 70.435C268.385 61.1595 269.68 39.1759 262.996 40.0941Z" fill="black"/>
<path d="M304.552 59.7301C298.609 60.5543 299.894 82.6735 299.967 89.6849C300.071 99.962 300.207 104.615 300.865 110.5C301.596 117.073 301.962 120.37 302.693 120.339C305.116 120.235 305.774 109.55 306.066 106.253C306.756 98.4283 307.507 90.5718 308.113 82.7362C308.646 75.7039 309.638 59.031 304.562 59.7301H304.552Z" fill="black"/>
<path d="M183.047 40.2298C175.204 41.3149 176.906 70.4872 177 79.7418C177.136 93.2951 177.324 99.43 178.191 107.193C179.162 115.863 179.643 120.203 180.593 120.162C183.799 120.016 184.656 105.941 185.032 101.579C185.94 91.2501 186.932 80.9 187.726 70.5707C188.436 61.2952 189.731 39.3116 183.047 40.2298Z" fill="black"/>
<path d="M56.3209 49.0356C50.1067 49.2443 47.5584 75.2657 46.3991 83.477C44.7072 95.5069 44.0388 100.953 43.6733 107.923C43.2764 115.706 43.0675 119.598 43.8195 119.65C46.3156 119.828 48.8535 107.432 49.7203 103.603C51.7882 94.5366 53.9396 85.4593 55.9135 76.3821C57.689 68.223 61.6159 48.8687 56.3104 49.0461L56.3209 49.0356Z" fill="black"/>
<path d="M58.2112 48.9836C64.4253 49.1923 66.9736 75.2137 68.1329 83.4249C69.8248 95.4549 70.4932 100.901 70.8588 107.871C71.2556 115.654 71.4645 119.546 70.7126 119.598C68.2165 119.776 65.6786 107.38 64.8117 103.551C62.7438 94.4846 60.5924 85.4073 58.6185 76.3301C56.843 68.171 52.9161 48.8167 58.2216 48.9941L58.2112 48.9836Z" fill="black"/>
<path d="M30.1797 24.7985C25.8246 23.7864 19.2762 34.8878 18.4198 36.3276C15.7358 40.8767 13.6679 44.3928 15.6 46.8238C17.8559 49.6513 24.6026 49.8913 28.7071 47.5229C32.7907 45.1544 33.1667 40.8141 33.5113 36.891C33.8246 33.3019 33.5844 25.581 30.1797 24.7985Z" fill="black"/>
<path d="M3.52683 59.897C3.45372 56.9339 12.1013 53.6473 19.8089 53.8351C27.3598 54.0229 35.7045 57.5703 35.4748 60.5335C35.2346 63.507 26.2946 65.7816 19.1614 65.6042C12.2266 65.4268 3.59993 62.8497 3.53727 59.9074L3.52683 59.897Z" fill="black"/>
<path d="M134.368 60.5128C134.379 57.5496 139.893 54.0961 144.739 54.1274C149.491 54.1587 154.671 57.5496 154.462 60.5023C154.253 63.4863 148.582 65.9278 144.091 65.8861C139.726 65.8443 134.347 63.4446 134.368 60.5023V60.5128Z" fill="black"/>
<path d="M7.10909 70.4872C6.66 71.3741 11.3284 75.0885 17.1666 75.5788C23.9134 76.1423 30.0648 72.1879 29.7097 71.2698C29.4591 70.6124 26.0126 71.7706 18.9943 71.5723C11.3493 71.3532 7.49552 69.7569 7.10909 70.4977V70.4872Z" fill="black"/>
<path d="M44.9683 92.4081C44.5192 93.295 49.1877 97.0093 55.0258 97.4997C61.7726 98.0631 67.924 94.1088 67.5689 93.1907C67.3183 92.5333 63.8718 93.6915 56.8535 93.4932C49.2085 93.2741 45.3547 91.6778 44.9683 92.4186V92.4081Z" fill="black"/>
<path d="M16.4668 80.3468C6.90021 81.2232 12.2997 95.3086 13.459 99.795C15.1613 106.368 16.0804 109.342 18.0334 113.077C20.2058 117.25 21.3024 119.337 22.4721 119.275C26.4094 119.066 25.8873 112.19 25.8664 110.051C25.8141 105.001 25.8873 99.9202 25.6888 94.8704C25.5113 90.3318 24.634 79.5956 16.4668 80.3468Z" fill="black"/>
<path d="M376.49 6.00752C378.526 17.1819 354.505 18.1001 347.048 19.0182C336.134 20.3641 331.142 20.8024 324.594 20.4685C317.283 20.0929 313.617 19.9051 313.304 18.5487C312.239 14.0205 323.205 11.2035 326.557 10.1705C334.505 7.71863 342.432 5.13109 350.422 2.84614C357.597 0.790717 374.745 -3.53923 376.479 5.99708L376.49 6.00752Z" fill="black"/>
<path d="M346.432 24.8715C350.787 23.8594 357.335 34.9608 358.192 36.4006C360.876 40.9497 362.944 44.4658 361.012 46.8968C358.756 49.7243 352.009 49.9643 347.905 47.5959C343.821 45.2274 343.445 40.8871 343.1 36.964C342.787 33.3749 343.027 25.654 346.432 24.8715Z" fill="black"/>
<path d="M373.074 59.97C373.147 57.0069 364.5 53.7203 356.792 53.9081C349.241 54.0959 340.897 57.6433 341.126 60.6065C341.367 63.58 350.307 65.8546 357.44 65.6772C364.375 65.4998 373.001 62.9227 373.064 59.9804L373.074 59.97Z" fill="black"/>
<path d="M369.492 70.5602C369.941 71.4471 365.273 75.1615 359.435 75.6518C352.688 76.2153 346.536 72.2609 346.892 71.3428C347.142 70.6854 350.589 71.8436 357.607 71.6453C365.252 71.4262 369.106 69.8299 369.492 70.5707V70.5602Z" fill="black"/>
<path d="M360.134 80.4198C369.701 81.2962 364.302 95.3816 363.142 99.868C361.44 106.441 360.521 109.415 358.568 113.15C356.395 117.323 355.299 119.41 354.129 119.348C350.192 119.139 350.714 112.263 350.735 110.124C350.787 105.074 350.714 99.9932 350.912 94.9434C351.09 90.4048 351.967 79.6686 360.134 80.4198Z" fill="black"/>
<path d="M143.548 68.943C133.961 68.0562 135.611 86.5028 135.59 92.2621C135.559 100.703 135.695 104.542 136.635 109.54C137.689 115.112 138.212 117.908 139.381 118.064C143.298 118.607 144.551 110.041 145.084 107.412C146.337 101.183 147.716 94.954 148.823 88.7043C149.825 83.091 151.736 69.6942 143.548 68.943Z" fill="black"/>
<path d="M204.186 63.4237C204.196 60.4605 209.711 57.007 214.557 57.0383C219.309 57.0696 224.489 60.4605 224.28 63.4132C224.071 66.3972 218.4 68.8387 213.909 68.797C209.544 68.7552 204.165 66.3555 204.186 63.4132V63.4237Z" fill="black"/>
<path d="M213.376 71.8539C203.789 70.9671 205.439 89.4137 205.418 95.173C205.387 103.614 205.523 107.453 206.463 112.451C207.517 118.023 208.04 120.819 209.209 120.975C213.126 121.518 214.379 112.952 214.912 110.323C216.165 104.094 217.544 97.8649 218.651 91.6151C219.653 86.0019 221.564 72.6051 213.376 71.8539Z" fill="black"/>
</g>
<defs>
<filter id="filter0_d_107_1407" x="0" y="0" width="376.612" height="125" filterUnits="userSpaceOnUse" color-interpolation-filters="sRGB">
<feFlood flood-opacity="0" result="BackgroundImageFix"/>
<feColorMatrix in="SourceAlpha" type="matrix" values="0 0 0 0 0 0 0 0 0 0 0 0 0 0 0 0 0 0 127 0" result="hardAlpha"/>
<feOffset dy="4"/>
<feComposite in2="hardAlpha" operator="out"/>
<feColorMatrix type="matrix" values="0 0 0 0 0 0 0 0 0 0 0 0 0 0 0 0 0 0 0.25 0"/>
<feBlend mode="normal" in2="BackgroundImageFix" result="effect1_dropShadow_107_1407"/>
<feBlend mode="normal" in="SourceGraphic" in2="effect1_dropShadow_107_1407" result="shape"/>
</filter>
</defs>
</svg>
